<!-- <svg xmlns="http://www.w3.org/2000/svg" width="190" height="40" viewBox="0 0 190 40"><g fill="none" fill-rule="evenodd"><path fill="#FFF" fill-rule="nonzero" d="M56 30.7038 56 10.3402 64.4915 10.3402C66.0161 10.3402 67.2921 10.5556 68.3196 10.9865 69.3537 11.4174 70.1293 12.0206 70.6463 12.7962 71.17 13.5717 71.4318 14.4699 71.4318 15.4908 71.4318 16.2663 71.2694 16.959 70.9446 17.5689 70.6198 18.1721 70.1723 18.6726 69.6023 19.0703 69.0322 19.468 68.3726 19.7464 67.6236 19.9055L67.6236 20.1044C68.4455 20.1442 69.2045 20.3662 69.9006 20.7706 70.6032 21.175 71.1667 21.7384 71.5909 22.4609 72.0152 23.1768 72.2273 24.0253 72.2273 25.0064 72.2273 26.1001 71.9489 27.0779 71.392 27.9396 70.8352 28.7947 70.0298 29.4709 68.9759 29.968 67.9219 30.4586 66.6425 30.7038 65.1378 30.7038L56 30.7038ZM60.9219 26.7365 63.9645 26.7365C65.0317 26.7365 65.8172 26.5343 66.321 26.13 66.8314 25.7256 67.0866 25.1622 67.0866 24.4396 67.0866 23.916 66.964 23.4652 66.7188 23.0874 66.4735 22.7029 66.1255 22.4079 65.6747 22.2024 65.224 21.9903 64.6837 21.8842 64.054 21.8842L60.9219 21.8842 60.9219 26.7365ZM60.9219 18.7124 63.6463 18.7124C64.1832 18.7124 64.6605 18.6229 65.0781 18.4439 65.4957 18.2649 65.8205 18.0064 66.0526 17.6683 66.2912 17.3303 66.4105 16.9226 66.4105 16.4453 66.4105 15.7625 66.1686 15.2256 65.6847 14.8345 65.2008 14.4434 64.5478 14.2479 63.7259 14.2479L60.9219 14.2479 60.9219 18.7124ZM73.4737 30.7038 73.4737 15.4311 78.1968 15.4311 78.1968 18.2152 78.3559 18.2152C78.6343 17.2076 79.0883 16.4586 79.7181 15.968 80.3478 15.4709 81.0803 15.2223 81.9155 15.2223 82.1409 15.2223 82.3729 15.2389 82.6115 15.272 82.8502 15.2985 83.0722 15.3416 83.2777 15.4013L83.2777 19.6271C83.0457 19.5476 82.7408 19.4846 82.363 19.4382 81.9917 19.3918 81.6603 19.3686 81.3686 19.3686 80.7919 19.3686 80.2716 19.4979 79.8076 19.7564 79.3502 20.0083 78.9889 20.3629 78.7237 20.8203 78.4652 21.2711 78.336 21.8014 78.336 22.4112L78.336 30.7038 73.4737 30.7038ZM87.8701 30.9624C86.8957 30.9624 86.0306 30.8 85.2749 30.4751 84.5259 30.1437 83.9326 29.6465 83.4951 28.9837 83.0642 28.3142 82.8488 27.4756 82.8488 26.468 82.8488 25.6196 82.9979 24.9036 83.2962 24.3203 83.5945 23.737 84.0055 23.263 84.5292 22.8984 85.0529 22.5339 85.6561 22.2588 86.3388 22.0732 87.0216 21.8809 87.7508 21.7517 88.5263 21.6854 89.3947 21.6058 90.094 21.523 90.6243 21.4368 91.1546 21.344 91.5391 21.2147 91.7778 21.049 92.023 20.8767 92.1457 20.6347 92.1457 20.3232L92.1457 20.2734C92.1457 19.763 91.97 19.3686 91.6187 19.0902 91.2673 18.8118 90.7934 18.6726 90.1968 18.6726 89.5538 18.6726 89.0368 18.8118 88.6457 19.0902 88.2546 19.3686 88.006 19.7531 87.8999 20.2436L83.4155 20.0845C83.5481 19.1565 83.8895 18.3279 84.4397 17.5987 84.9965 16.8629 85.7588 16.2862 86.7266 15.8686 87.7011 15.4444 88.871 15.2322 90.2366 15.2322 91.211 15.2322 92.1092 15.3482 92.9312 15.5803 93.7531 15.8056 94.469 16.1371 95.0789 16.5746 95.6887 17.0054 96.159 17.5357 96.491 18.1655 96.829 18.7952 96.998 19.5144 96.998 20.3232L96.998 30.7038 92.4241 30.7038 92.4241 28.576 92.3047 28.576C92.033 29.093 91.685 29.5305 91.2607 29.8885 90.8431 30.2465 90.3493 30.5149 89.7792 30.6939 89.2157 30.8729 88.5794 30.9624 87.8701 30.9624ZM89.3715 27.7805C89.8952 27.7805 90.3658 27.6745 90.7834 27.4624 91.2077 27.2502 91.5457 26.9586 91.7976 26.5874 92.0495 26.2095 92.1755 25.772 92.1755 25.2749L92.1755 23.8232C92.0363 23.8961 91.8672 23.9624 91.6684 24.022 91.4761 24.0817 91.264 24.138 91.032 24.1911 90.8 24.2441 90.5614 24.2905 90.3161 24.3303 90.0708 24.37 89.8355 24.4065 89.6101 24.4396 89.1528 24.5125 88.7617 24.6252 88.4368 24.7777 88.1187 24.9302 87.8734 25.129 87.7011 25.3743 87.5353 25.6129 87.4525 25.898 87.4525 26.2294 87.4525 26.7332 87.6315 27.1177 87.9894 27.3828 88.354 27.648 88.8147 27.7805 89.3715 27.7805ZM98.851 30.7038 98.851 15.4311 103.713 15.4311 103.713 30.7038 98.851 30.7038ZM101.287 13.6513C100.604 13.6513 100.018 13.4259 99.527 12.9751 99.037 12.5178 98.791 11.9676 98.791 11.3246 98.791 10.6882 99.037 10.1447 99.527 9.6939 100.018 9.2365 100.604 9.0078 101.287 9.0078 101.976 9.0078 102.563 9.2365 103.047 9.6939 103.537 10.1447 103.783 10.6882 103.783 11.3246 103.783 11.9676 103.537 12.5178 103.047 12.9751 102.563 13.4259 101.976 13.6513 101.287 13.6513ZM110.55 21.9936 110.55 30.7038 105.688 30.7038 105.688 15.4311 110.312 15.4311 110.312 18.2351 110.481 18.2351C110.819 17.3004 111.395 16.5679 112.211 16.0376 113.026 15.5007 113.997 15.2322 115.124 15.2322 116.198 15.2322 117.129 15.4742 117.918 15.9581 118.714 16.4354 119.33 17.1049 119.768 17.9666 120.212 18.8217 120.43 19.8227 120.424121 20.9695L120.424121 30.7038 115.562 30.7038 115.562 21.924C115.568 21.0755 115.353 20.4126 114.915 19.9354 114.484 19.4581 113.884 19.2195 113.116 19.2195 112.605 19.2195 112.154 19.3322 111.763 19.5575 111.379 19.7763 111.08 20.0911 110.868 20.5021 110.663 20.9131 110.557 21.4103 110.55 21.9936Z"/><polygon fill="#FFF" fill-rule="nonzero" points="125.168 30.704 121.19 15.431 126.073 15.431 128.131 25.215 128.26 25.215 130.467 15.431 135.23 15.431 137.497 25.146 137.627 25.146 139.625 15.431 144.507 15.431 140.52 30.704 135.32 30.704 132.933 21.805 132.764 21.805 130.378 30.704"/><path fill="#FFF" fill-rule="nonzero" d="M149.644,30.9624 C148.67,30.9624 147.805,30.8 147.049,30.4751 C146.3,30.1437 145.706,29.6465 145.269,28.9837 C144.838,28.3142 144.623,27.4756 144.623,26.468 C144.623,25.6196 144.772,24.9036 145.07,24.3203 C145.368,23.737 145.779,23.263 146.303,22.8984 C146.827,22.5339 147.43,22.2588 148.113,22.0732 C148.796,21.8809 149.525,21.7517 150.3,21.6854 C151.169,21.6058 151.868,21.523 152.398,21.4368 C152.929,21.344 153.313,21.2147 153.552,21.049 C153.797,20.8767 153.92,20.6347 153.92,20.3232 L153.92,20.2734 C153.92,19.763 153.744,19.3686 153.393,19.0902 C153.041,18.8118 152.567,18.6726 151.971,18.6726 C151.328,18.6726 150.811,18.8118 150.42,19.0902 C150.028,19.3686 149.78,19.7531 149.674,20.2436 L145.189,20.0845 C145.322,19.1565 145.663,18.3279 146.214,17.5987 C146.77,16.8629 147.533,16.2862 148.501,15.8686 C149.475,15.4444 150.645,15.2322 152.01,15.2322 C152.985,15.2322 153.883,15.3482 154.705,15.5803 C155.527,15.8056 156.243,16.1371 156.853,16.5746 C157.463,17.0054 157.933,17.5357 158.265,18.1655 C158.603,18.7952 158.772,19.5144 158.772,20.3232 L158.772,30.7038 L154.198,30.7038 L154.198,28.576 L154.079,28.576 C153.807,29.093 153.459,29.5305 153.035,29.8885 C152.617,30.2465 152.123,30.5149 151.553,30.6939 C150.99,30.8729 150.353,30.9624 149.644,30.9624 Z M151.145,27.7805 C151.669,27.7805 152.14,27.6745 152.557,27.4624 C152.982,27.2502 153.32,26.9586 153.572,26.5874 C153.823,26.2095 153.949,25.772 153.949,25.2749 L153.949,23.8232 C153.81,23.8961 153.641,23.9624 153.442,24.022 C153.25,24.0817 153.038,24.138 152.806,24.1911 C152.574,24.2441 152.335,24.2905 152.09,24.3303 C151.845,24.37 151.609,24.4065 151.384,24.4396 C150.927,24.5125 150.536,24.6252 150.211,24.7777 C149.893,24.9302 149.647,25.129 149.475,25.3743 C149.309,25.6129 149.226,25.898 149.226,26.2294 C149.226,26.7332 149.405,27.1177 149.763,27.3828 C150.128,27.648 150.589,27.7805 151.145,27.7805 Z"/><polygon fill="#FFF" fill-rule="nonzero" points="174.893 15.431 169.653 30.704 164.085 30.704 158.855 15.431 163.976 15.431 166.79 25.951 166.949 25.951 169.773 15.431"/><path fill="#FFF" fill-rule="nonzero" d="M182.285,30.9922 C180.687,30.9922 179.308,30.6773 178.148,30.0476 C176.995,29.4112 176.107,28.5064 175.484,27.3331 C174.867,26.1532 174.559,24.7512 174.559,23.1271 C174.559,21.5495 174.87,20.1707 175.493,18.9908 C176.117,17.8042 176.995,16.8828 178.128,16.2266 C179.262,15.5637 180.598,15.2322 182.136,15.2322 C183.223,15.2322 184.217,15.4013 185.118,15.7393 C186.02,16.0774 186.799,16.5779 187.455,17.2408 C188.111,17.9036 188.622,18.7223 188.986,19.6967 C189.351,20.6645 189.533,21.7749 189.533,23.0277 L189.533,24.2408 L176.259,24.2408 L176.259,21.4169 L185.009,21.4169 C185.002,20.8999 184.88,20.4392 184.641,20.0348 C184.403,19.6304 184.074,19.3156 183.657,19.0902 C183.246,18.8582 182.772,18.7422 182.235,18.7422 C181.691,18.7422 181.204,18.8648 180.773,19.1101 C180.342,19.3487 180.001,19.6768 179.749,20.0945 C179.497,20.5054 179.365,20.9728 179.351,21.4965 L179.351,24.37 C179.351,24.9931 179.474,25.54 179.719,26.0107 C179.965,26.4747 180.313,26.8359 180.763,27.0945 C181.214,27.353 181.751,27.4822 182.374,27.4822 C182.805,27.4822 183.196,27.4226 183.547,27.3033 C183.899,27.184 184.2,27.0083 184.452,26.7763 C184.704,26.5443 184.893,26.2592 185.019,25.9212 L189.484,26.0504 C189.298,27.0514 188.89,27.9231 188.261,28.6655 C187.637,29.4013 186.819,29.9747 185.805,30.3857 C184.79,30.79 183.617,30.9922 182.285,30.9922 Z"/><polygon fill="#AC6AFF" fill-rule="nonzero" points="35.213 11.501 35.206 6.288 25.586 0 25.586 4.022 31.931 8.2 31.936 11.402 28.988 13.398 26.977 11.931 26.977 9.446 23.7 7.204 23.7 11.727 18.505 14.915 18.495 23.335 14.822 25.403 12.937 23.926 12.937 21.488 15.169 19.959 15.169 19.939 15.169 16.166 11.152 18.854 8.081 16.856 5.276 18.693 9.659 21.694 9.659 23.536 6.5 25.674 3.277 23.492 3.277 16.23 8.062 12.991 8.066 9.875 14.203 13.827 19.361 10.394 16.216 8.559 14.159 9.947 9.677 6.983 14.731 4.036 19.11 6.603 19.11 2.775 14.736 .211 4.794 6.008 4.787 11.223 0 14.465 0 25.257 4.787 28.499 4.794 33.714 14.414 40 14.414 35.981 8.069 31.803 8.064 28.601 11.012 26.605 13.023 28.072 13.023 30.557 16.3 32.798 16.3 28.275 21.569 25.088 21.628 16.667 25.178 14.599 27.063 16.076 27.063 18.514 24.831 20.043 24.831 20.063 24.831 23.837 28.848 21.148 31.919 23.146 34.724 21.309 30.34 18.306 30.34 16.466 33.5 14.329 36.723 16.511 36.723 23.772 31.939 27.012 31.934 30.127 25.797 26.173 20.639 29.584 23.784 31.416 25.841 30.055 30.323 33.019 25.269 35.966 20.89 33.399 20.89 37.225 25.264 39.789 35.206 33.995 35.213 28.779 40 25.537 40 14.743"/></g></svg> -->

<svg version="1.0" preserveAspectRatio="xMidYMid meet" viewBox="3.59807984 67.05 216.78431035999998 90.45" zoomAndPan="magnify" xmlns:xlink="http://www.w3.org/1999/xlink" xmlns="http://www.w3.org/2000/svg" style="max-height: 500px" width="216.78431035999998" height="90.45"><defs><g/><clipPath id="615409946a"><path clip-rule="nonzero" d="M 5.886719 75.492188 L 80 75.492188 L 80 149.703125 L 5.886719 149.703125 Z M 5.886719 75.492188"/></clipPath><clipPath id="e94bbc2834"><path clip-rule="nonzero" d="M 68.316406 94.847656 L 90.804688 94.847656 L 90.804688 117.335938 L 68.316406 117.335938 Z M 68.316406 94.847656"/></clipPath><clipPath id="2d322ee5f4"><path clip-rule="nonzero" d="M 75.992188 102.816406 L 85.992188 102.816406 L 85.992188 116.144531 L 75.992188 116.144531 Z M 75.992188 102.816406"/></clipPath><clipPath id="7c98ec6aba"><path clip-rule="nonzero" d="M 75.996094 110.222656 C 76.4375 107.484375 76.617188 106.6875 76.96875 106.070312 C 77.234375 105.628906 78.03125 104.917969 78.117188 104.832031 C 78.117188 104.832031 78.117188 104.742188 78.117188 104.65625 C 78.207031 104.65625 78.207031 104.566406 78.207031 104.566406 C 78.207031 104.566406 78.296875 104.476562 78.296875 104.390625 C 78.382812 104.300781 78.382812 104.210938 78.382812 104.210938 C 78.382812 104.210938 78.472656 104.210938 78.5625 104.125 C 78.5625 104.125 78.648438 104.035156 78.648438 104.035156 C 78.648438 104.035156 78.738281 103.949219 78.828125 103.949219 C 78.914062 103.949219 79.003906 103.859375 79.003906 103.859375 C 79.003906 103.859375 79.089844 103.859375 79.179688 103.859375 C 79.179688 103.769531 79.269531 103.769531 79.269531 103.769531 C 79.355469 103.769531 79.445312 103.769531 79.445312 103.769531 C 79.535156 103.769531 79.621094 103.769531 79.621094 103.769531 C 79.621094 103.769531 79.796875 103.769531 79.796875 103.859375 C 79.796875 103.859375 79.796875 103.859375 79.886719 103.859375 C 79.976562 103.769531 80.152344 103.328125 80.417969 103.152344 C 80.769531 102.976562 81.390625 102.796875 81.832031 102.886719 C 82.273438 102.976562 82.894531 103.328125 83.246094 103.683594 C 83.601562 104.035156 83.601562 104.742188 83.867188 105.007812 C 84.128906 105.183594 84.308594 105.007812 84.574219 105.183594 C 84.925781 105.539062 85.722656 106.511719 85.898438 107.21875 C 86.074219 108.015625 85.808594 109.429688 85.722656 109.695312 C 85.632812 109.78125 85.632812 109.78125 85.546875 109.871094 C 85.546875 109.960938 85.722656 110.046875 85.722656 110.222656 C 85.632812 110.402344 85.28125 110.667969 85.28125 110.929688 C 85.191406 111.285156 85.457031 111.816406 85.367188 112.257812 C 85.28125 112.699219 85.015625 113.054688 84.75 113.40625 C 84.394531 113.847656 84.042969 114.378906 83.511719 114.734375 C 82.980469 115.175781 82.363281 115.527344 81.65625 115.707031 C 80.949219 115.972656 79.886719 116.234375 79.179688 116.058594 C 78.472656 115.972656 77.589844 115.617188 77.324219 115.175781 C 77.144531 114.734375 77.589844 113.847656 77.410156 113.582031 C 77.324219 113.40625 77.144531 113.40625 76.96875 113.230469 C 76.703125 112.964844 76.351562 112.347656 76.175781 111.902344 C 75.996094 111.375 75.996094 110.222656 75.996094 110.222656"/></clipPath><clipPath id="28ffc990e8"><path clip-rule="nonzero" d="M 80.257812 100.871094 L 87.789062 100.871094 L 87.789062 110.964844 L 80.257812 110.964844 Z M 80.257812 100.871094"/></clipPath><clipPath id="bd3190ee0b"><path clip-rule="nonzero" d="M 83.3125 102.519531 C 83.40625 105.40625 83.03125 102.519531 83.496094 101.871094 C 83.871094 101.5 84.707031 101.40625 85.171875 101.589844 C 85.636719 101.777344 85.914062 102.335938 86.101562 102.988281 C 86.472656 104.382812 86.378906 108.289062 85.914062 109.308594 C 85.636719 109.867188 85.265625 110.148438 84.890625 110.242188 C 84.425781 110.332031 83.589844 110.148438 83.3125 109.683594 C 82.847656 108.753906 84.148438 104.847656 84.800781 103.824219 C 85.171875 103.359375 85.542969 102.988281 85.914062 102.988281 C 86.472656 103.078125 87.402344 104.101562 87.589844 104.847656 C 87.773438 105.777344 87.402344 107.636719 86.753906 108.195312 C 86.289062 108.660156 85.078125 108.9375 84.707031 108.566406 C 84.148438 108.195312 84.054688 105.960938 84.519531 105.125 C 84.800781 104.566406 85.636719 104.007812 86.195312 104.007812 C 86.660156 104.007812 87.21875 104.566406 87.496094 105.21875 C 87.867188 106.054688 87.867188 108.378906 87.402344 109.21875 C 87.125 109.867188 86.289062 110.425781 85.730469 110.332031 C 85.265625 110.332031 84.707031 109.773438 84.425781 109.21875 C 84.054688 108.289062 84.148438 106.054688 84.519531 105.125 C 84.800781 104.566406 85.355469 104.007812 85.824219 104.007812 C 86.378906 104.007812 87.308594 104.566406 87.496094 105.21875 C 87.867188 106.054688 87.496094 108.84375 86.84375 109.308594 C 86.289062 109.589844 84.707031 109.03125 84.613281 108.660156 C 84.425781 108.289062 85.636719 107.078125 86.101562 107.078125 C 86.660156 107.078125 87.589844 108.195312 87.683594 108.660156 C 87.683594 109.125 87.308594 109.773438 86.9375 109.960938 C 86.472656 110.148438 85.355469 110.054688 85.078125 109.683594 C 84.707031 109.308594 85.078125 107.355469 85.449219 107.171875 C 85.914062 106.984375 87.589844 107.914062 87.683594 108.566406 C 87.773438 109.125 86.566406 110.613281 85.914062 110.890625 C 85.449219 111.078125 84.613281 110.796875 84.242188 110.425781 C 83.871094 110.054688 83.777344 109.402344 83.777344 108.753906 C 83.871094 107.542969 84.707031 104.472656 85.449219 104.101562 C 86.007812 103.824219 87.03125 104.289062 87.402344 104.847656 C 87.960938 105.683594 87.867188 108.289062 87.402344 109.21875 C 87.125 109.773438 86.566406 110.332031 86.101562 110.332031 C 85.636719 110.425781 84.890625 110.054688 84.613281 109.496094 C 84.054688 108.753906 84.148438 106.054688 84.519531 105.125 C 84.707031 104.660156 84.984375 104.195312 85.449219 104.101562 C 85.914062 104.007812 86.9375 104.289062 87.308594 104.847656 C 87.773438 105.40625 87.589844 106.890625 87.496094 107.730469 C 87.496094 108.472656 87.496094 109.21875 87.03125 109.589844 C 86.566406 110.054688 84.890625 110.425781 84.335938 110.054688 C 83.683594 109.496094 83.871094 107.171875 84.148438 106.054688 C 84.425781 104.9375 85.265625 103.171875 85.914062 102.988281 C 86.472656 102.894531 87.402344 103.542969 87.589844 104.101562 C 87.867188 104.847656 87.21875 106.242188 86.84375 107.265625 C 86.378906 108.195312 85.914062 109.867188 85.171875 110.148438 C 84.613281 110.332031 83.589844 109.960938 83.125 109.308594 C 82.382812 108.289062 82.472656 103.730469 83.125 102.519531 C 83.496094 101.871094 84.335938 101.40625 84.800781 101.5 C 85.265625 101.5 85.824219 102.054688 86.007812 102.707031 C 86.378906 103.542969 86.007812 105.589844 85.542969 106.519531 C 85.078125 107.265625 84.425781 108.007812 83.683594 108.101562 C 82.9375 108.195312 81.542969 107.824219 80.988281 107.078125 C 80.242188 106.054688 80.054688 102.613281 80.613281 101.683594 C 80.894531 101.125 81.824219 100.753906 82.289062 100.941406 C 82.753906 101.035156 83.3125 102.519531 83.3125 102.519531"/></clipPath><clipPath id="05281fc51c"><path clip-rule="nonzero" d="M 82.179688 102.882812 L 87.316406 102.882812 L 87.316406 114 L 82.179688 114 Z M 82.179688 102.882812"/></clipPath><clipPath id="dfdbd3c2a0"><path clip-rule="nonzero" d="M 87.308594 105.21875 C 85.542969 113.589844 84.800781 114.054688 84.335938 113.960938 C 83.871094 113.867188 83.40625 113.402344 83.125 112.660156 C 82.472656 111.171875 81.730469 105.40625 82.660156 104.007812 C 83.125 103.265625 84.519531 102.894531 84.984375 103.078125 C 85.449219 103.265625 85.730469 103.917969 85.730469 104.382812 C 85.636719 104.847656 84.984375 105.777344 84.519531 105.871094 C 84.054688 105.871094 82.660156 104.753906 82.566406 104.195312 C 82.566406 103.730469 83.03125 103.171875 83.40625 102.988281 C 83.871094 102.800781 84.800781 102.894531 85.265625 103.265625 C 86.007812 103.917969 86.289062 106.054688 86.472656 107.542969 C 86.660156 109.21875 86.660156 111.914062 86.007812 112.9375 C 85.636719 113.589844 84.800781 114.054688 84.335938 113.960938 C 83.777344 113.867188 83.3125 113.125 83.125 112.378906 C 82.753906 110.707031 83.683594 105.589844 84.613281 104.382812 C 85.078125 103.730469 85.914062 103.453125 86.378906 103.542969 C 86.84375 103.730469 87.308594 105.21875 87.308594 105.21875"/></clipPath><clipPath id="bcdbbe5d78"><path clip-rule="nonzero" d="M 75.894531 97.894531 L 87.058594 97.894531 L 87.058594 112.78125 L 75.894531 112.78125 Z M 75.894531 97.894531"/></clipPath><clipPath id="af60638ad2"><path clip-rule="nonzero" d="M 75.964844 102.054688 C 76.523438 100.011719 76.800781 99.453125 77.265625 99.082031 C 77.730469 98.707031 78.660156 98.707031 78.847656 98.523438 C 78.941406 98.429688 78.941406 98.335938 79.035156 98.242188 C 79.125 98.242188 79.3125 98.335938 79.5 98.242188 C 79.589844 98.242188 79.683594 98.152344 79.871094 98.152344 C 79.964844 98.152344 80.054688 98.242188 80.242188 98.242188 C 80.429688 98.152344 80.613281 97.964844 80.894531 97.964844 C 81.359375 97.964844 82.195312 98.152344 82.753906 98.335938 C 83.3125 98.523438 83.777344 98.617188 84.242188 98.894531 C 84.800781 99.171875 85.449219 99.546875 85.824219 100.011719 C 86.289062 100.382812 86.660156 100.847656 86.84375 101.40625 C 87.03125 102.148438 87.125 103.265625 86.84375 103.917969 C 86.566406 104.566406 85.636719 105.3125 85.449219 105.40625 C 85.355469 105.40625 85.355469 105.40625 85.355469 105.40625 C 85.171875 105.589844 85.542969 106.707031 85.449219 107.265625 C 85.355469 107.730469 85.171875 108.195312 84.984375 108.566406 C 84.707031 109.03125 84.425781 109.402344 84.148438 109.773438 C 83.871094 110.148438 83.496094 110.613281 83.03125 110.890625 C 82.566406 111.171875 81.453125 111.078125 81.359375 111.171875 C 81.265625 111.261719 81.265625 111.261719 81.265625 111.261719 C 81.171875 111.355469 80.613281 112.101562 80.242188 112.378906 C 79.871094 112.566406 79.3125 112.75 78.847656 112.75 C 78.382812 112.75 77.824219 112.472656 77.546875 112.101562 C 77.171875 111.636719 77.082031 110.519531 77.082031 109.960938 C 77.082031 109.496094 77.359375 109.125 77.359375 108.84375 C 77.265625 108.660156 77.082031 108.566406 76.988281 108.378906 C 76.894531 108.007812 76.988281 107.265625 77.082031 106.800781 C 77.082031 106.519531 77.359375 106.335938 77.265625 106.054688 C 77.265625 105.777344 76.800781 105.589844 76.707031 105.3125 C 76.523438 104.941406 76.617188 104.382812 76.523438 104.007812 C 76.429688 103.824219 76.242188 103.730469 76.152344 103.542969 C 76.058594 103.171875 75.964844 102.054688 75.964844 102.054688"/></clipPath><clipPath id="0e5f447929"><path clip-rule="nonzero" d="M 73.972656 98.882812 L 82.8125 98.882812 L 82.8125 106.988281 L 73.972656 106.988281 Z M 73.972656 98.882812"/></clipPath><clipPath id="750ceebc7b"><path clip-rule="nonzero" d="M 75.21875 98.921875 C 82.75 99.851562 83.214844 104.6875 82.566406 105.898438 C 82.191406 106.546875 81.167969 107.011719 80.613281 106.828125 C 80.148438 106.734375 79.679688 105.804688 79.679688 105.339844 C 79.679688 104.96875 80.054688 104.316406 80.425781 104.222656 C 80.890625 103.945312 81.820312 104.128906 82.191406 104.410156 C 82.472656 104.6875 82.75 105.339844 82.566406 105.710938 C 82.472656 106.175781 81.726562 106.921875 81.261719 106.921875 C 80.796875 107.011719 80.054688 106.546875 79.773438 105.988281 C 79.214844 105.058594 80.425781 101.898438 79.679688 101.152344 C 78.84375 100.410156 75.777344 102.175781 74.9375 101.621094 C 74.378906 101.339844 73.914062 100.503906 74.007812 99.945312 C 74.101562 99.574219 75.21875 98.921875 75.21875 98.921875"/></clipPath><clipPath id="ea0ce57785"><path clip-rule="nonzero" d="M 73.457031 97.085938 L 81.460938 97.085938 L 81.460938 106.734375 L 73.457031 106.734375 Z M 73.457031 97.085938"/></clipPath><clipPath id="5325aa72ae"><path clip-rule="nonzero" d="M 75.867188 101.0625 C 79.308594 97.898438 79.867188 98.179688 80.148438 98.550781 C 80.425781 98.921875 80.613281 99.851562 80.238281 100.222656 C 79.679688 100.875 75.402344 100.96875 74.753906 100.316406 C 74.378906 99.851562 74.566406 98.828125 75.03125 98.269531 C 75.496094 97.621094 77.449219 96.96875 78.285156 97.15625 C 78.84375 97.25 79.496094 97.714844 79.589844 98.179688 C 79.679688 98.644531 79.03125 100.039062 78.75 100.039062 C 78.472656 100.039062 77.914062 98.921875 78.101562 98.734375 C 78.285156 98.457031 79.679688 98.828125 80.238281 99.203125 C 80.796875 99.574219 81.449219 100.316406 81.355469 100.875 C 81.355469 101.339844 80.519531 102.085938 79.867188 102.175781 C 78.9375 102.363281 76.890625 100.222656 76.242188 100.6875 C 75.496094 101.152344 77.078125 105.246094 76.519531 106.082031 C 76.148438 106.546875 75.21875 106.734375 74.753906 106.546875 C 74.289062 106.363281 73.824219 105.523438 73.824219 104.96875 C 73.824219 104.59375 74.195312 104.039062 74.566406 103.851562 C 75.03125 103.664062 76.054688 103.851562 76.425781 104.128906 C 76.707031 104.410156 76.890625 105.058594 76.796875 105.523438 C 76.613281 105.988281 75.867188 106.734375 75.402344 106.734375 C 74.84375 106.640625 74.101562 105.988281 73.824219 105.152344 C 73.265625 103.851562 73.449219 99.945312 74.378906 98.734375 C 74.9375 97.992188 75.960938 97.621094 76.890625 97.714844 C 78.007812 97.714844 80.238281 98.828125 80.890625 99.480469 C 81.261719 99.945312 81.542969 100.503906 81.355469 100.875 C 81.167969 101.433594 79.773438 102.085938 78.9375 102.085938 C 77.820312 101.992188 75.683594 100.597656 75.3125 99.757812 C 75.125 99.203125 75.21875 98.644531 75.589844 98.269531 C 75.960938 97.621094 77.542969 96.96875 78.285156 97.15625 C 78.84375 97.15625 79.496094 97.714844 79.589844 98.179688 C 79.773438 98.644531 79.496094 99.386719 79.03125 99.851562 C 78.472656 100.410156 76.796875 100.96875 75.960938 100.96875 C 75.496094 100.875 74.9375 100.6875 74.753906 100.316406 C 74.566406 99.851562 74.566406 99.015625 74.753906 98.550781 C 75.03125 98.269531 75.496094 98.085938 76.054688 97.898438 C 76.890625 97.714844 78.84375 97.621094 79.589844 98.085938 C 80.148438 98.550781 80.425781 99.574219 80.238281 100.222656 C 80.054688 101.0625 78.378906 102.734375 77.542969 102.734375 C 76.890625 102.734375 75.867188 101.0625 75.867188 101.0625"/></clipPath></defs><g clip-path="url(#615409946a)"><path fill-rule="nonzero" fill-opacity="1" d="M 79.882812 112.484375 C 79.882812 132.921875 63.316406 149.492188 42.878906 149.492188 C 22.441406 149.492188 5.875 132.921875 5.875 112.484375 C 5.875 92.050781 22.441406 75.480469 42.878906 75.480469 C 63.316406 75.480469 79.882812 92.050781 79.882812 112.484375 M 68.261719 112.484375 C 68.261719 98.46875 56.898438 87.101562 42.878906 87.101562 C 28.859375 87.101562 17.496094 98.46875 17.496094 112.484375 C 17.496094 126.503906 28.859375 137.871094 42.878906 137.871094 C 56.898438 137.871094 68.261719 126.503906 68.261719 112.484375 Z M 68.261719 112.484375" fill="#ac6aff"/></g><g clip-path="url(#e94bbc2834)"><path fill-rule="nonzero" fill-opacity="1" d="M 91.023438 106.199219 C 91.023438 112.472656 85.9375 117.554688 79.667969 117.554688 C 73.398438 117.554688 68.3125 112.472656 68.3125 106.199219 C 68.3125 99.929688 73.398438 94.84375 79.667969 94.84375 C 85.9375 94.84375 91.023438 99.929688 91.023438 106.199219 M 87.457031 106.199219 C 87.457031 101.898438 83.96875 98.410156 79.667969 98.410156 C 75.367188 98.410156 71.878906 101.898438 71.878906 106.199219 C 71.878906 110.503906 75.367188 113.988281 79.667969 113.988281 C 83.96875 113.988281 87.457031 110.503906 87.457031 106.199219 Z M 87.457031 106.199219" fill="#ac6aff"/></g><g clip-path="url(#2d322ee5f4)"><g clip-path="url(#7c98ec6aba)"><path fill-rule="nonzero" fill-opacity="1" d="M 72.460938 99.351562 L 89.523438 99.351562 L 89.523438 119.613281 L 72.460938 119.613281 Z M 72.460938 99.351562" fill="#ac6aff"/></g></g><g clip-path="url(#28ffc990e8)"><g clip-path="url(#bd3190ee0b)"><path fill-rule="nonzero" fill-opacity="1" d="M 76.894531 97.21875 L 91.496094 97.21875 L 91.496094 114.730469 L 76.894531 114.730469 Z M 76.894531 97.21875" fill="#ac6aff"/></g></g><g clip-path="url(#05281fc51c)"><g clip-path="url(#dfdbd3c2a0)"><path fill-rule="nonzero" fill-opacity="1" d="M 78.847656 99.265625 L 91.03125 99.265625 L 91.03125 117.683594 L 78.847656 117.683594 Z M 78.847656 99.265625" fill="#ac6aff"/></g></g><g clip-path="url(#bcdbbe5d78)"><g clip-path="url(#af60638ad2)"><path fill-rule="nonzero" fill-opacity="1" d="M 72.246094 94.246094 L 90.566406 94.246094 L 90.566406 116.5 L 72.246094 116.5 Z M 72.246094 94.246094" fill="#ac6aff"/></g></g><g clip-path="url(#0e5f447929)"><g clip-path="url(#750ceebc7b)"><path fill-rule="nonzero" fill-opacity="1" d="M 70.289062 95.015625 L 86.375 95.015625 L 86.375 110.734375 L 70.289062 110.734375 Z M 70.289062 95.015625" fill="#ac6aff"/></g></g><g clip-path="url(#ea0ce57785)"><g clip-path="url(#5325aa72ae)"><path fill-rule="nonzero" fill-opacity="1" d="M 70.101562 93.433594 L 85.167969 93.433594 L 85.167969 110.441406 L 70.101562 110.441406 Z M 70.101562 93.433594" fill="#ac6aff"/></g></g><g fill-opacity="1" fill="#ac6aff"><g transform="translate(96.742454, 133.33583)"><g><path d="M 1.015625 -18.203125 C 1.015625 -23.460938 2.804688 -27.914062 6.390625 -31.5625 C 9.972656 -35.207031 14.289062 -37.03125 19.34375 -37.03125 C 24.425781 -37.03125 28.742188 -35.210938 32.296875 -31.578125 C 35.859375 -27.953125 37.640625 -23.492188 37.640625 -18.203125 C 37.640625 -12.878906 35.890625 -8.40625 32.390625 -4.78125 C 28.898438 -1.15625 24.550781 0.65625 19.34375 0.65625 C 14.03125 0.65625 9.644531 -1.140625 6.1875 -4.734375 C 2.738281 -8.335938 1.015625 -12.828125 1.015625 -18.203125 Z M 9.96875 -18.203125 C 9.96875 -16.296875 10.257812 -14.554688 10.84375 -12.984375 C 11.425781 -11.410156 12.453125 -10.078125 13.921875 -8.984375 C 15.390625 -7.898438 17.195312 -7.359375 19.34375 -7.359375 C 22.4375 -7.359375 24.765625 -8.414062 26.328125 -10.53125 C 27.898438 -12.644531 28.6875 -15.203125 28.6875 -18.203125 C 28.6875 -21.171875 27.882812 -23.71875 26.28125 -25.84375 C 24.6875 -27.976562 22.375 -29.046875 19.34375 -29.046875 C 16.351562 -29.046875 14.039062 -27.976562 12.40625 -25.84375 C 10.78125 -23.71875 9.96875 -21.171875 9.96875 -18.203125 Z M 9.96875 -18.203125"/></g></g></g><g fill-opacity="1" fill="#ac6aff"><g transform="translate(135.385121, 133.33583)"><g><path d="M 2.640625 0 L 2.640625 -22.609375 L 10.453125 -22.609375 L 10.453125 -19.34375 L 10.53125 -19.34375 C 10.59375 -19.46875 10.6875 -19.617188 10.8125 -19.796875 C 10.945312 -19.972656 11.234375 -20.28125 11.671875 -20.71875 C 12.117188 -21.15625 12.59375 -21.550781 13.09375 -21.90625 C 13.59375 -22.257812 14.238281 -22.570312 15.03125 -22.84375 C 15.820312 -23.125 16.628906 -23.265625 17.453125 -23.265625 C 18.304688 -23.265625 19.144531 -23.144531 19.96875 -22.90625 C 20.789062 -22.675781 21.394531 -22.445312 21.78125 -22.21875 L 22.390625 -21.859375 L 19.125 -15.25 C 18.15625 -16.070312 16.804688 -16.484375 15.078125 -16.484375 C 14.140625 -16.484375 13.332031 -16.273438 12.65625 -15.859375 C 11.976562 -15.453125 11.5 -14.953125 11.21875 -14.359375 C 10.9375 -13.773438 10.738281 -13.273438 10.625 -12.859375 C 10.507812 -12.453125 10.453125 -12.132812 10.453125 -11.90625 L 10.453125 0 Z M 2.640625 0"/></g></g></g><g fill-opacity="1" fill="#ac6aff"><g transform="translate(157.328179, 133.33583)"><g><path d="M 25.921875 -19.78125 C 28.035156 -17.46875 29.09375 -14.632812 29.09375 -11.28125 C 29.09375 -7.9375 28.035156 -5.109375 25.921875 -2.796875 C 23.804688 -0.492188 21.117188 0.65625 17.859375 0.65625 C 14.859375 0.65625 12.390625 -0.414062 10.453125 -2.5625 L 10.359375 -2.5625 L 10.359375 0 L 2.640625 0 L 2.640625 -37.90625 L 10.453125 -37.90625 L 10.453125 -20.453125 C 12.390625 -22.328125 14.859375 -23.265625 17.859375 -23.265625 C 21.117188 -23.265625 23.804688 -22.101562 25.921875 -19.78125 Z M 19.34375 -7.46875 C 20.320312 -8.457031 20.8125 -9.726562 20.8125 -11.28125 C 20.8125 -12.84375 20.300781 -14.125 19.28125 -15.125 C 18.269531 -16.125 17.015625 -16.625 15.515625 -16.625 C 14.046875 -16.625 12.800781 -16.125 11.78125 -15.125 C 10.769531 -14.125 10.265625 -12.84375 10.265625 -11.28125 C 10.265625 -9.75 10.753906 -8.484375 11.734375 -7.484375 C 12.722656 -6.492188 13.984375 -6 15.515625 -6 C 17.097656 -6 18.375 -6.488281 19.34375 -7.46875 Z M 19.34375 -7.46875"/></g></g></g><g fill-opacity="1" fill="#ac6aff"><g transform="translate(187.422759, 133.33583)"><g><path d="M 3.390625 -35.21875 C 4.304688 -36.125 5.394531 -36.578125 6.65625 -36.578125 C 7.914062 -36.578125 9 -36.125 9.90625 -35.21875 C 10.820312 -34.3125 11.28125 -33.222656 11.28125 -31.953125 C 11.28125 -30.691406 10.820312 -29.601562 9.90625 -28.6875 C 9 -27.78125 7.914062 -27.328125 6.65625 -27.328125 C 5.394531 -27.328125 4.304688 -27.78125 3.390625 -28.6875 C 2.484375 -29.601562 2.03125 -30.691406 2.03125 -31.953125 C 2.03125 -33.222656 2.484375 -34.3125 3.390625 -35.21875 Z M 2.640625 -22.609375 L 2.640625 0 L 10.453125 0 L 10.453125 -22.609375 Z M 2.640625 -22.609375"/></g></g></g><g fill-opacity="1" fill="#ac6aff"><g transform="translate(200.729576, 133.33583)"><g><path d="M 3.96875 -22.609375 L 3.96875 -31.03125 L 11.765625 -31.03125 L 11.765625 -22.609375 L 16.53125 -22.609375 L 16.53125 -16.65625 L 11.765625 -16.65625 L 11.765625 -9.484375 C 11.765625 -7.390625 12.351562 -6.34375 13.53125 -6.34375 C 13.820312 -6.34375 14.128906 -6.398438 14.453125 -6.515625 C 14.773438 -6.640625 15.023438 -6.757812 15.203125 -6.875 L 15.46875 -7.046875 L 17.40625 -0.75 C 15.726562 0.1875 13.820312 0.65625 11.6875 0.65625 C 10.21875 0.65625 8.953125 0.398438 7.890625 -0.109375 C 6.828125 -0.617188 6.023438 -1.304688 5.484375 -2.171875 C 4.941406 -3.046875 4.550781 -3.957031 4.3125 -4.90625 C 4.082031 -5.863281 3.96875 -6.890625 3.96875 -7.984375 L 3.96875 -16.65625 L 0.703125 -16.65625 L 0.703125 -22.609375 Z M 3.96875 -22.609375"/></g></g></g></svg>