<!-- <svg xmlns="http://www.w3.org/2000/svg" width="48" height="48" viewBox="0 0 48 48"><polygon fill="#AC6AFF" points="38.831 15.118 38.823 9.905 29.203 3.617 29.203 7.639 35.548 11.817 35.553 15.019 32.605 17.015 30.594 15.548 30.594 13.063 27.317 10.821 27.317 15.344 22.122 18.532 22.113 26.952 18.44 29.02 16.554 27.543 16.554 25.105 18.786 23.576 18.786 23.556 18.786 19.783 14.769 22.471 11.698 20.473 8.893 22.31 13.277 25.311 13.277 27.154 10.117 29.291 6.894 27.109 6.894 19.848 11.679 16.608 11.684 13.492 17.82 17.445 22.978 14.011 19.834 12.177 17.776 13.564 13.294 10.6 18.349 7.654 22.727 10.22 22.727 6.393 18.354 3.828 8.411 9.625 8.404 14.84 3.617 18.082 3.617 28.874 8.404 32.116 8.411 37.332 18.032 43.617 18.032 39.598 11.686 35.42 11.681 32.218 14.629 30.222 16.64 31.689 16.64 34.174 19.917 36.416 19.917 31.892 25.186 28.705 25.245 20.285 28.795 18.217 30.68 19.694 30.68 22.131 28.448 23.661 28.448 23.68 28.448 27.454 32.465 24.765 35.536 26.764 38.341 24.927 33.958 21.923 33.958 20.083 37.117 17.946 40.34 20.128 40.34 27.389 35.556 30.629 35.551 33.744 29.414 29.79 24.256 33.201 27.401 35.033 29.459 33.672 33.941 36.636 28.886 39.583 24.507 37.016 24.507 40.842 28.881 43.406 38.823 37.612 38.831 32.396 43.617 29.154 43.617 18.361"/></svg> 

-->

<svg xmlns="http://www.w3.org/2000/svg" xmlns:xlink="http://www.w3.org/1999/xlink" width="100" zoomAndPan="magnify" viewBox="0 0 75 74.999997" height="100" preserveAspectRatio="xMidYMid meet" version="1.0"><defs><clipPath id="feb5dae754"><path d="M 5.289062 7.652344 L 65 7.652344 L 65 67.652344 L 5.289062 67.652344 Z M 5.289062 7.652344 " clip-rule="nonzero"/></clipPath><clipPath id="cb148f9fd6"><path d="M 55.636719 23.265625 L 73.636719 23.265625 L 73.636719 41.265625 L 55.636719 41.265625 Z M 55.636719 23.265625 " clip-rule="nonzero"/></clipPath><clipPath id="09a3d6804d"><path d="M 61.824219 29.691406 L 69.886719 29.691406 L 69.886719 40.441406 L 61.824219 40.441406 Z M 61.824219 29.691406 " clip-rule="nonzero"/></clipPath><clipPath id="e2d75f3a2e"><path d="M 61.828125 35.664062 C 62.183594 33.453125 62.328125 32.8125 62.613281 32.3125 C 62.828125 31.957031 63.46875 31.386719 63.539062 31.316406 C 63.539062 31.316406 63.539062 31.246094 63.539062 31.171875 C 63.609375 31.171875 63.609375 31.101562 63.609375 31.101562 C 63.609375 31.101562 63.683594 31.03125 63.683594 30.960938 C 63.753906 30.886719 63.753906 30.816406 63.753906 30.816406 C 63.753906 30.816406 63.824219 30.816406 63.894531 30.746094 C 63.894531 30.746094 63.96875 30.675781 63.96875 30.675781 C 63.96875 30.675781 64.039062 30.601562 64.109375 30.601562 C 64.179688 30.601562 64.253906 30.53125 64.253906 30.53125 C 64.253906 30.53125 64.324219 30.53125 64.394531 30.53125 C 64.394531 30.460938 64.464844 30.460938 64.464844 30.460938 C 64.539062 30.460938 64.609375 30.460938 64.609375 30.460938 C 64.679688 30.460938 64.75 30.460938 64.75 30.460938 C 64.75 30.460938 64.894531 30.460938 64.894531 30.53125 C 64.894531 30.53125 64.894531 30.53125 64.964844 30.53125 C 65.035156 30.460938 65.179688 30.101562 65.394531 29.960938 C 65.679688 29.816406 66.179688 29.675781 66.535156 29.746094 C 66.890625 29.816406 67.390625 30.101562 67.675781 30.390625 C 67.960938 30.675781 67.960938 31.246094 68.175781 31.457031 C 68.386719 31.601562 68.53125 31.457031 68.746094 31.601562 C 69.03125 31.886719 69.671875 32.671875 69.8125 33.242188 C 69.957031 33.882812 69.742188 35.023438 69.671875 35.238281 C 69.601562 35.308594 69.601562 35.308594 69.527344 35.378906 C 69.527344 35.449219 69.671875 35.523438 69.671875 35.664062 C 69.601562 35.808594 69.316406 36.019531 69.316406 36.234375 C 69.242188 36.519531 69.457031 36.949219 69.386719 37.304688 C 69.316406 37.660156 69.101562 37.945312 68.886719 38.230469 C 68.601562 38.589844 68.316406 39.015625 67.890625 39.300781 C 67.460938 39.65625 66.960938 39.941406 66.390625 40.085938 C 65.820312 40.300781 64.964844 40.511719 64.394531 40.371094 C 63.824219 40.300781 63.113281 40.015625 62.898438 39.65625 C 62.753906 39.300781 63.113281 38.589844 62.96875 38.375 C 62.898438 38.230469 62.753906 38.230469 62.613281 38.089844 C 62.398438 37.875 62.113281 37.375 61.972656 37.019531 C 61.828125 36.589844 61.828125 35.664062 61.828125 35.664062 " clip-rule="nonzero"/></clipPath><clipPath id="07978aec0d"><path d="M 65.265625 28.121094 L 71.335938 28.121094 L 71.335938 36.261719 L 65.265625 36.261719 Z M 65.265625 28.121094 " clip-rule="nonzero"/></clipPath><clipPath id="3930aa2b0e"><path d="M 67.726562 29.453125 C 67.800781 31.777344 67.503906 29.453125 67.878906 28.925781 C 68.175781 28.628906 68.851562 28.550781 69.226562 28.703125 C 69.601562 28.851562 69.828125 29.300781 69.976562 29.828125 C 70.277344 30.953125 70.203125 34.101562 69.828125 34.925781 C 69.601562 35.378906 69.300781 35.601562 69.003906 35.675781 C 68.628906 35.753906 67.953125 35.601562 67.726562 35.226562 C 67.351562 34.476562 68.402344 31.328125 68.925781 30.503906 C 69.226562 30.128906 69.527344 29.828125 69.828125 29.828125 C 70.277344 29.902344 71.027344 30.726562 71.175781 31.328125 C 71.328125 32.078125 71.027344 33.578125 70.503906 34.027344 C 70.128906 34.402344 69.152344 34.628906 68.851562 34.328125 C 68.402344 34.027344 68.328125 32.226562 68.703125 31.550781 C 68.925781 31.101562 69.601562 30.652344 70.050781 30.652344 C 70.425781 30.652344 70.878906 31.101562 71.101562 31.628906 C 71.402344 32.300781 71.402344 34.175781 71.027344 34.851562 C 70.800781 35.378906 70.128906 35.828125 69.675781 35.753906 C 69.300781 35.753906 68.851562 35.300781 68.628906 34.851562 C 68.328125 34.101562 68.402344 32.300781 68.703125 31.550781 C 68.925781 31.101562 69.378906 30.652344 69.753906 30.652344 C 70.203125 30.652344 70.953125 31.101562 71.101562 31.628906 C 71.402344 32.300781 71.101562 34.550781 70.578125 34.925781 C 70.128906 35.152344 68.851562 34.703125 68.777344 34.402344 C 68.628906 34.101562 69.601562 33.128906 69.976562 33.128906 C 70.425781 33.128906 71.175781 34.027344 71.253906 34.402344 C 71.253906 34.777344 70.953125 35.300781 70.652344 35.453125 C 70.277344 35.601562 69.378906 35.527344 69.152344 35.226562 C 68.851562 34.925781 69.152344 33.351562 69.453125 33.203125 C 69.828125 33.050781 71.175781 33.800781 71.253906 34.328125 C 71.328125 34.777344 70.351562 35.976562 69.828125 36.203125 C 69.453125 36.351562 68.777344 36.128906 68.476562 35.828125 C 68.175781 35.527344 68.101562 35.003906 68.101562 34.476562 C 68.175781 33.503906 68.851562 31.027344 69.453125 30.726562 C 69.902344 30.503906 70.726562 30.878906 71.027344 31.328125 C 71.476562 32.003906 71.402344 34.101562 71.027344 34.851562 C 70.800781 35.300781 70.351562 35.753906 69.976562 35.753906 C 69.601562 35.828125 69.003906 35.527344 68.777344 35.078125 C 68.328125 34.476562 68.402344 32.300781 68.703125 31.550781 C 68.851562 31.175781 69.078125 30.800781 69.453125 30.726562 C 69.828125 30.652344 70.652344 30.878906 70.953125 31.328125 C 71.328125 31.777344 71.175781 32.976562 71.101562 33.652344 C 71.101562 34.253906 71.101562 34.851562 70.726562 35.152344 C 70.351562 35.527344 69.003906 35.828125 68.550781 35.527344 C 68.027344 35.078125 68.175781 33.203125 68.402344 32.300781 C 68.628906 31.402344 69.300781 29.976562 69.828125 29.828125 C 70.277344 29.753906 71.027344 30.277344 71.175781 30.726562 C 71.402344 31.328125 70.878906 32.453125 70.578125 33.277344 C 70.203125 34.027344 69.828125 35.378906 69.226562 35.601562 C 68.777344 35.753906 67.953125 35.453125 67.578125 34.925781 C 66.976562 34.101562 67.050781 30.425781 67.578125 29.453125 C 67.878906 28.925781 68.550781 28.550781 68.925781 28.628906 C 69.300781 28.628906 69.753906 29.078125 69.902344 29.601562 C 70.203125 30.277344 69.902344 31.925781 69.527344 32.675781 C 69.152344 33.277344 68.628906 33.878906 68.027344 33.953125 C 67.425781 34.027344 66.300781 33.726562 65.851562 33.128906 C 65.253906 32.300781 65.101562 29.527344 65.550781 28.777344 C 65.777344 28.328125 66.527344 28.027344 66.902344 28.175781 C 67.277344 28.253906 67.726562 29.453125 67.726562 29.453125 " clip-rule="nonzero"/></clipPath><clipPath id="073b72c4c7"><path d="M 66.8125 29.746094 L 70.957031 29.746094 L 70.957031 38.726562 L 66.8125 38.726562 Z M 66.8125 29.746094 " clip-rule="nonzero"/></clipPath><clipPath id="425a0c8f8a"><path d="M 70.953125 31.628906 C 69.527344 38.378906 68.925781 38.753906 68.550781 38.675781 C 68.175781 38.601562 67.800781 38.226562 67.578125 37.628906 C 67.050781 36.425781 66.453125 31.777344 67.203125 30.652344 C 67.578125 30.050781 68.703125 29.753906 69.078125 29.902344 C 69.453125 30.050781 69.675781 30.578125 69.675781 30.953125 C 69.601562 31.328125 69.078125 32.078125 68.703125 32.152344 C 68.328125 32.152344 67.203125 31.253906 67.128906 30.800781 C 67.128906 30.425781 67.503906 29.976562 67.800781 29.828125 C 68.175781 29.675781 68.925781 29.753906 69.300781 30.050781 C 69.902344 30.578125 70.128906 32.300781 70.277344 33.503906 C 70.425781 34.851562 70.425781 37.027344 69.902344 37.851562 C 69.601562 38.378906 68.925781 38.753906 68.550781 38.675781 C 68.101562 38.601562 67.726562 38.003906 67.578125 37.402344 C 67.277344 36.050781 68.027344 31.925781 68.777344 30.953125 C 69.152344 30.425781 69.828125 30.203125 70.203125 30.277344 C 70.578125 30.425781 70.953125 31.628906 70.953125 31.628906 " clip-rule="nonzero"/></clipPath><clipPath id="3c03e42eb2"><path d="M 61.746094 25.722656 L 70.75 25.722656 L 70.75 37.726562 L 61.746094 37.726562 Z M 61.746094 25.722656 " clip-rule="nonzero"/></clipPath><clipPath id="095b37baf5"><path d="M 61.800781 29.078125 C 62.253906 27.425781 62.476562 26.976562 62.851562 26.675781 C 63.226562 26.378906 63.976562 26.378906 64.128906 26.226562 C 64.203125 26.152344 64.203125 26.078125 64.277344 26.003906 C 64.351562 26.003906 64.503906 26.078125 64.652344 26.003906 C 64.726562 26.003906 64.800781 25.925781 64.953125 25.925781 C 65.027344 25.925781 65.101562 26.003906 65.253906 26.003906 C 65.402344 25.925781 65.550781 25.777344 65.777344 25.777344 C 66.152344 25.777344 66.828125 25.925781 67.277344 26.078125 C 67.726562 26.226562 68.101562 26.300781 68.476562 26.527344 C 68.925781 26.753906 69.453125 27.050781 69.753906 27.425781 C 70.128906 27.726562 70.425781 28.101562 70.578125 28.550781 C 70.726562 29.152344 70.800781 30.050781 70.578125 30.578125 C 70.351562 31.101562 69.601562 31.703125 69.453125 31.777344 C 69.378906 31.777344 69.378906 31.777344 69.378906 31.777344 C 69.226562 31.925781 69.527344 32.828125 69.453125 33.277344 C 69.378906 33.652344 69.226562 34.027344 69.078125 34.328125 C 68.851562 34.703125 68.628906 35.003906 68.402344 35.300781 C 68.175781 35.601562 67.878906 35.976562 67.503906 36.203125 C 67.128906 36.425781 66.226562 36.351562 66.152344 36.425781 C 66.078125 36.503906 66.078125 36.503906 66.078125 36.503906 C 66.003906 36.578125 65.550781 37.175781 65.253906 37.402344 C 64.953125 37.550781 64.503906 37.703125 64.128906 37.703125 C 63.753906 37.703125 63.300781 37.476562 63.078125 37.175781 C 62.777344 36.800781 62.703125 35.902344 62.703125 35.453125 C 62.703125 35.078125 62.925781 34.777344 62.925781 34.550781 C 62.851562 34.402344 62.703125 34.328125 62.628906 34.175781 C 62.550781 33.878906 62.628906 33.277344 62.703125 32.902344 C 62.703125 32.675781 62.925781 32.527344 62.851562 32.300781 C 62.851562 32.078125 62.476562 31.925781 62.402344 31.703125 C 62.253906 31.402344 62.328125 30.953125 62.253906 30.652344 C 62.175781 30.503906 62.027344 30.425781 61.953125 30.277344 C 61.878906 29.976562 61.800781 29.078125 61.800781 29.078125 " clip-rule="nonzero"/></clipPath><clipPath id="8c610b7996"><path d="M 60.195312 26.519531 L 67.324219 26.519531 L 67.324219 33.054688 L 60.195312 33.054688 Z M 60.195312 26.519531 " clip-rule="nonzero"/></clipPath><clipPath id="fec39beb58"><path d="M 61.199219 26.550781 C 67.273438 27.300781 67.648438 31.199219 67.125 32.175781 C 66.824219 32.699219 66 33.074219 65.550781 32.925781 C 65.175781 32.851562 64.800781 32.101562 64.800781 31.726562 C 64.800781 31.425781 65.101562 30.898438 65.398438 30.824219 C 65.773438 30.601562 66.523438 30.75 66.824219 30.976562 C 67.050781 31.199219 67.273438 31.726562 67.125 32.023438 C 67.050781 32.398438 66.449219 33 66.074219 33 C 65.699219 33.074219 65.101562 32.699219 64.875 32.25 C 64.425781 31.5 65.398438 28.949219 64.800781 28.351562 C 64.125 27.75 61.648438 29.175781 60.976562 28.726562 C 60.523438 28.5 60.148438 27.824219 60.226562 27.375 C 60.300781 27.074219 61.199219 26.550781 61.199219 26.550781 " clip-rule="nonzero"/></clipPath><clipPath id="83640749e0"><path d="M 59.78125 25.066406 L 66.234375 25.066406 L 66.234375 32.851562 L 59.78125 32.851562 Z M 59.78125 25.066406 " clip-rule="nonzero"/></clipPath><clipPath id="b3e52cb157"><path d="M 61.726562 28.273438 C 64.5 25.726562 64.949219 25.949219 65.175781 26.25 C 65.398438 26.550781 65.550781 27.300781 65.25 27.601562 C 64.800781 28.125 61.351562 28.199219 60.824219 27.675781 C 60.523438 27.300781 60.675781 26.476562 61.050781 26.023438 C 61.425781 25.5 63 24.976562 63.675781 25.125 C 64.125 25.199219 64.648438 25.574219 64.726562 25.949219 C 64.800781 26.324219 64.273438 27.449219 64.050781 27.449219 C 63.824219 27.449219 63.375 26.550781 63.523438 26.398438 C 63.675781 26.175781 64.800781 26.476562 65.25 26.773438 C 65.699219 27.074219 66.226562 27.675781 66.148438 28.125 C 66.148438 28.5 65.476562 29.101562 64.949219 29.175781 C 64.199219 29.324219 62.550781 27.601562 62.023438 27.976562 C 61.425781 28.351562 62.699219 31.648438 62.25 32.324219 C 61.949219 32.699219 61.199219 32.851562 60.824219 32.699219 C 60.449219 32.550781 60.074219 31.875 60.074219 31.425781 C 60.074219 31.125 60.375 30.675781 60.675781 30.523438 C 61.050781 30.375 61.875 30.523438 62.175781 30.75 C 62.398438 30.976562 62.550781 31.5 62.476562 31.875 C 62.324219 32.25 61.726562 32.851562 61.351562 32.851562 C 60.898438 32.773438 60.300781 32.25 60.074219 31.574219 C 59.625 30.523438 59.773438 27.375 60.523438 26.398438 C 60.976562 25.800781 61.800781 25.5 62.550781 25.574219 C 63.449219 25.574219 65.25 26.476562 65.773438 27 C 66.074219 27.375 66.300781 27.824219 66.148438 28.125 C 66 28.574219 64.875 29.101562 64.199219 29.101562 C 63.300781 29.023438 61.574219 27.898438 61.273438 27.226562 C 61.125 26.773438 61.199219 26.324219 61.5 26.023438 C 61.800781 25.5 63.074219 24.976562 63.675781 25.125 C 64.125 25.125 64.648438 25.574219 64.726562 25.949219 C 64.875 26.324219 64.648438 26.925781 64.273438 27.300781 C 63.824219 27.75 62.476562 28.199219 61.800781 28.199219 C 61.425781 28.125 60.976562 27.976562 60.824219 27.675781 C 60.675781 27.300781 60.675781 26.625 60.824219 26.25 C 61.050781 26.023438 61.425781 25.875 61.875 25.726562 C 62.550781 25.574219 64.125 25.5 64.726562 25.875 C 65.175781 26.25 65.398438 27.074219 65.25 27.601562 C 65.101562 28.273438 63.75 29.625 63.074219 29.625 C 62.550781 29.625 61.726562 28.273438 61.726562 28.273438 " clip-rule="nonzero"/></clipPath></defs><g clip-path="url(#feb5dae754)"><path fill="#ac6aff" d="M 64.957031 37.488281 C 64.957031 53.96875 51.597656 67.328125 35.117188 67.328125 C 18.636719 67.328125 5.277344 53.96875 5.277344 37.488281 C 5.277344 21.007812 18.636719 7.644531 35.117188 7.644531 C 51.597656 7.644531 64.957031 21.007812 64.957031 37.488281 M 55.585938 37.488281 C 55.585938 26.183594 46.421875 17.015625 35.117188 17.015625 C 23.8125 17.015625 14.648438 26.183594 14.648438 37.488281 C 14.648438 48.792969 23.8125 57.957031 35.117188 57.957031 C 46.421875 57.957031 55.585938 48.792969 55.585938 37.488281 Z M 55.585938 37.488281 " fill-opacity="1" fill-rule="nonzero"/></g><g clip-path="url(#cb148f9fd6)"><path fill="#ac6aff" d="M 73.949219 32.421875 C 73.949219 37.476562 69.847656 41.578125 64.789062 41.578125 C 59.730469 41.578125 55.632812 37.476562 55.632812 32.421875 C 55.632812 27.363281 59.730469 23.261719 64.789062 23.261719 C 69.847656 23.261719 73.949219 27.363281 73.949219 32.421875 M 71.070312 32.421875 C 71.070312 28.949219 68.257812 26.136719 64.789062 26.136719 C 61.320312 26.136719 58.507812 28.949219 58.507812 32.421875 C 58.507812 35.890625 61.320312 38.703125 64.789062 38.703125 C 68.257812 38.703125 71.070312 35.890625 71.070312 32.421875 Z M 71.070312 32.421875 " fill-opacity="1" fill-rule="nonzero"/></g><g clip-path="url(#09a3d6804d)"><g clip-path="url(#e2d75f3a2e)"><path fill="#ac6aff" d="M 58.976562 26.894531 L 72.738281 26.894531 L 72.738281 43.234375 L 58.976562 43.234375 Z M 58.976562 26.894531 " fill-opacity="1" fill-rule="nonzero"/></g></g><g clip-path="url(#07978aec0d)"><g clip-path="url(#3930aa2b0e)"><path fill="#ac6aff" d="M 62.550781 25.175781 L 74.328125 25.175781 L 74.328125 39.296875 L 62.550781 39.296875 Z M 62.550781 25.175781 " fill-opacity="1" fill-rule="nonzero"/></g></g><g clip-path="url(#073b72c4c7)"><g clip-path="url(#425a0c8f8a)"><path fill="#ac6aff" d="M 64.128906 26.828125 L 73.953125 26.828125 L 73.953125 41.679688 L 64.128906 41.679688 Z M 64.128906 26.828125 " fill-opacity="1" fill-rule="nonzero"/></g></g><g clip-path="url(#3c03e42eb2)"><g clip-path="url(#095b37baf5)"><path fill="#ac6aff" d="M 58.800781 22.777344 L 73.578125 22.777344 L 73.578125 40.726562 L 58.800781 40.726562 Z M 58.800781 22.777344 " fill-opacity="1" fill-rule="nonzero"/></g></g><g clip-path="url(#8c610b7996)"><g clip-path="url(#fec39beb58)"><path fill="#ac6aff" d="M 57.226562 23.398438 L 70.195312 23.398438 L 70.195312 36.074219 L 57.226562 36.074219 Z M 57.226562 23.398438 " fill-opacity="1" fill-rule="nonzero"/></g></g><g clip-path="url(#83640749e0)"><g clip-path="url(#b3e52cb157)"><path fill="#ac6aff" d="M 57.074219 22.125 L 69.226562 22.125 L 69.226562 35.839844 L 57.074219 35.839844 Z M 57.074219 22.125 " fill-opacity="1" fill-rule="nonzero"/></g></g></svg>