<?xml version="1.0" encoding="UTF-8"?>
<svg id="Layer_1" xmlns="http://www.w3.org/2000/svg" version="1.1" viewBox="0 0 1809 385">
  <!-- Generator: Adobe Illustrator 29.2.1, SVG Export Plug-In . SVG Version: 2.1.0 Build 116)  -->
  <defs>
    <style>
      .st0 {
        fill: #4d6bfe;
      }
    </style>
  </defs>
  <path class="st0" d="M1107.8,279.2h-18.1v-28h18.1c11.1,0,22.4-2.8,29.7-10.5,7.3-7.8,10-19.6,10-31.5s-2.7-23.8-10-31.5c-7.4-7.7-18.5-10.5-29.7-10.5s-22.5,2.8-29.7,10.5c-7.3,7.7-10,19.6-10,31.5v114.8h-31.6v-184.7h31.6v11.8h5.8c.6-.7,1.2-1.4,1.9-2,7.9-7.2,20.1-9.8,32-9.8,18.7,0,37.3,4.6,49.6,17.5,12.2,12.9,16.6,32.7,16.6,52.4s-4.4,39.4-16.6,52.4c-12.1,13-30.9,17.4-49.4,17.4Z"/>
  <path class="st0" d="M626.3,144.3h18v28h-18c-11.2,0-22.5,2.7-29.7,10.5-7.3,7.7-10,19.6-10,31.5s2.7,23.7,10,31.4c7.4,7.8,18.5,10.5,29.7,10.5s22.4-2.7,29.7-10.5c7.2-7.7,10-19.6,10-31.4v-115h31.6v184.8h-31.6v-11.7h-5.8c-.6.7-1.3,1.3-1.9,1.9-7.9,7.2-20,9.8-32,9.8-18.7,0-37.3-4.6-49.6-17.5-12.2-12.9-16.6-32.7-16.6-52.4s4.4-39.4,16.6-52.4c12.3-12.9,30.9-17.4,49.5-17.4Z"/>
  <path class="st0" d="M856.4,211.8v11.2h-84.3v-22.4h55.9c-1.2-8.1-4.2-15.8-9.5-21.3-7.6-8.1-19.3-10.9-30.9-10.9s-23.3,2.9-30.9,10.9c-7.6,8.1-10.4,20.3-10.4,32.5s2.7,24.6,10.4,32.5c7.6,8,19.3,11,30.9,11s23.3-2.9,30.9-11c1.1-1.1,2-2.4,3-3.6h31.2c-2.7,9.7-7,18.4-13.6,25.2-12.7,13.3-32.2,18.1-51.5,18.1s-38.8-4.7-51.4-18.1c-12.6-13.4-17.3-33.9-17.3-54.2s4.5-40.8,17.3-54.2c12.8-13.3,32.2-18.2,51.4-18.2s38.8,4.7,51.5,18.2c12.8,13.4,17.3,33.8,17.3,54.2Z"/>
  <path class="st0" d="M1015.2,211.8v11.2h-84.3v-22.4h55.9c-1.3-8.1-4.2-15.8-9.5-21.3-7.6-8.1-19.3-10.9-30.9-10.9s-23.3,2.9-30.9,10.9c-7.6,8.1-10.3,20.3-10.3,32.5s2.8,24.6,10.3,32.5c7.6,8,19.3,11,30.9,11s23.3-2.9,30.9-11c1.1-1.1,2-2.4,2.9-3.6h31.2c-2.7,9.7-7,18.4-13.6,25.2-12.7,13.3-32.1,18.1-51.5,18.1s-38.8-4.7-51.5-18.1c-12.6-13.4-17.3-33.9-17.3-54.2s4.5-40.8,17.3-54.2c12.7-13.3,32.2-18.2,51.5-18.2s38.8,4.7,51.5,18.2c12.7,13.4,17.3,33.8,17.3,54.2Z"/>
  <path class="st0" d="M1264,284.1c19.3,0,38.8-2.7,51.5-10.7,12.6-8,17.3-20,17.3-32s-4.5-24.2-17.3-32c-12.7-7.8-32.2-10.7-51.5-10.7s-15.8-1.2-21.2-4.2c-5.4-3.1-7.4-7.7-7.4-12.4s1.9-9.4,7.4-12.4c5.4-3.1,13.7-4.1,21.9-4.1s16.6,1.1,22,4.1c5.4,3.1,7.4,7.8,7.4,12.4h32.2c0-12-4.1-24.1-15.6-32-11.5-7.8-29.1-10.7-46.6-10.7s-35.1,2.8-46.6,10.7c-11.5,8-15.6,20-15.6,32s4.2,24.1,15.6,32c11.5,7.9,29.1,10.8,46.6,10.8s19.1,1.1,25.1,4.1c6,3,8.1,7.7,8.1,12.4s-2.1,9.4-8.1,12.4-15.2,4.1-24.2,4.1-18.4-1.1-24.3-4.1c-5.9-3-8.1-7.7-8.1-12.4h-37.1c0,11.9,4.5,24.1,17.3,32,12.8,7.8,32.1,10.7,51.4,10.7Z"/>
  <path class="st0" d="M1491.5,211.8v11.2h-84.3v-22.4h55.9c-1.3-8.1-4.3-15.8-9.5-21.3-7.6-8.1-19.3-10.9-30.9-10.9s-23.3,2.9-30.9,10.9c-7.6,8.1-10.3,20.3-10.3,32.5s2.8,24.6,10.3,32.5c7.6,8,19.3,11,30.9,11s23.3-2.9,30.9-11c1.1-1.1,2-2.4,3-3.6h31.2c-2.8,9.7-7,18.4-13.6,25.2-12.6,13.3-32.1,18.1-51.5,18.1s-38.8-4.7-51.4-18.1c-12.7-13.4-17.3-33.9-17.3-54.2s4.5-40.8,17.3-54.2c12.7-13.3,32.2-18.2,51.4-18.2s38.8,4.7,51.5,18.2c12.8,13.4,17.3,33.8,17.3,54.2Z"/>
  <path class="st0" d="M1650.3,211.8v11.2h-84.2v-22.4h55.9c-1.2-8.1-4.2-15.8-9.5-21.3-7.6-8.1-19.3-10.9-30.9-10.9s-23.3,2.9-30.9,10.9c-7.6,8.1-10.3,20.3-10.3,32.5s2.7,24.6,10.3,32.5c7.6,8,19.3,11,30.9,11s23.3-2.9,30.9-11c1-1.1,2-2.4,2.9-3.6h31.2c-2.8,9.7-7.1,18.4-13.6,25.2-12.7,13.3-32.2,18.1-51.5,18.1s-38.8-4.7-51.5-18.1c-12.7-13.4-17.3-33.9-17.3-54.2s4.5-40.8,17.3-54.2c12.7-13.3,32.1-18.2,51.5-18.2s38.8,4.7,51.5,18.2c12.7,13.4,17.3,33.8,17.3,54.2Z"/>
  <rect class="st0" x="1671.5" y="92.9" width="31.6" height="191.2"/>
  <polygon class="st0" points="1757.1 207.4 1809 284.1 1769.9 284.1 1718 207.4 1769.9 145.9 1809 145.9 1757.1 207.4"/>
  <path class="st0" d="M340.6,220.4c-4.4,1.7-8.7,3.3-12.8,3.4-6.5.3-13.5-2.3-17.3-5.5-5.9-5-10.2-7.8-12-16.5-.8-3.7-.3-9.5.3-12.8,1.5-7.1-.2-11.6-5.2-15.8-4.1-3.4-9.3-4.3-15-4.3s-4.1-.9-5.5-1.7c-2.4-1.2-4.3-4.2-2.5-7.8.6-1.2,3.5-4.1,4.2-4.5,7.7-4.4,16.7-2.9,24.9.3,7.7,3.1,13.4,8.8,21.7,16.9,8.5,9.8,10,12.5,14.9,19.8,3.8,5.7,7.3,11.7,9.7,18.4,1.4,4.2-.4,7.7-5.5,9.8ZM273.1,185.8c0-3.7,3-6.7,6.7-6.7s1.6.2,2.3.4c1,.3,1.8.9,2.5,1.6,1.2,1.2,1.9,2.9,1.9,4.6,0,3.7-2.9,6.7-6.7,6.7s-6.6-3-6.6-6.7ZM251.4,325.6c-45.3-35.7-67.3-47.4-76.4-46.9-8.5.5-6.9,10.2-5.1,16.6,1.9,6.2,4.5,10.5,8.1,16,2.5,3.6,4.2,9-2.5,13.1-14.6,9-40-3-41.2-3.6-29.5-17.4-54.3-40.4-71.6-71.8-16.8-30.2-26.6-62.7-28.2-97.3-.4-8.3,2-11.3,10.3-12.8,11-2,22.3-2.5,33.2-.9,46.3,6.8,85.7,27.5,118.7,60.3,18.9,18.6,33.1,40.9,47.8,62.7,15.6,23.2,32.4,45.2,53.8,63.3,7.6,6.3,13.6,11.2,19.4,14.7-17.4,1.9-46.4,2.4-66.3-13.3ZM515.5,32.2c-5.5-2.7-7.9,2.5-11.1,5.1-1.1.9-2,2-3,3-8.1,8.6-17.5,14.2-29.8,13.6-18-1-33.4,4.7-46.9,18.4-2.9-17-12.4-27.1-27.1-33.7-7.6-3.4-15.4-6.8-20.7-14.1-3.7-5.2-4.8-11-6.6-16.8-1.2-3.5-2.4-7-6.4-7.6-4.3-.7-6,2.9-7.7,6-6.8,12.4-9.4,26.1-9.2,39.9.6,31.2,13.8,56,39.9,73.7,3,2,3.8,4.1,2.8,7-1.8,6.1-3.9,12-5.8,18.1-1.2,3.9-3,4.7-7.1,3-14.3-6-26.7-14.9-37.7-25.6-18.6-18-35.4-37.8-56.3-53.4-4.9-3.7-9.9-7-15-10.2-21.4-20.8,2.8-37.8,8.4-39.9,5.9-2.1,2.1-9.4-16.9-9.3-18.9,0-36.2,6.4-58.3,14.9-3.2,1.2-6.6,2.2-10.1,2.9-20-3.8-40.8-4.6-62.6-2.2-40.9,4.5-73.6,23.9-97.6,56.9C1.8,121.7-5,166.8,3.3,213.8c8.8,49.6,34.1,90.6,72.9,122.7,40.3,33.3,86.8,49.6,139.8,46.4,32.1-1.8,68-6.2,108.4-40.4,10.2,5.1,20.9,7.1,38.6,8.6,13.7,1.3,26.8-.7,37-2.8,16-3.4,14.9-18.1,9.1-20.9-46.8-21.8-36.5-12.9-45.8-20.1,23.7-28.1,59.6-57.4,73.6-152,1.1-7.5.2-12.2,0-18.3,0-3.7.8-5.2,5-5.6,11.7-1.4,23.1-4.5,33.6-10.3,30.3-16.5,42.5-43.7,45.4-76.3.4-5,0-10.1-5.3-12.8Z"/>
</svg>